HIERARCHY
ROOT Hips
{
    OFFSET 0.000000 0.000000 0.000000
    CHANNELS 6 Xposition Yposition Zposition Zrotation Xrotation Yrotation
    JOINT Spine
    {
        OFFSET -0.000000 7.236184 0.000000
        CHANNELS 3 Zrotation Xrotation Yrotation
        JOINT Spine1
        {
            OFFSET -0.000000 20.420147 0.000000
            CHANNELS 3 Zrotation Xrotation Yrotation
            JOINT Neck
            {
                OFFSET -0.000000 20.336288 1.848754
                CHANNELS 3 Zrotation Xrotation Yrotation
                JOINT Head
                {
                    OFFSET -0.000000 12.354461 -1.764923
                    CHANNELS 3 Zrotation Xrotation Yrotation
                    End Site
                    {
                        OFFSET -0.000000 22.061537 0.000000
                    }
                }
            }
            JOINT LeftShoulder
            {
                OFFSET 3.573296 18.396038 -0.314103
                CHANNELS 3 Zrotation Xrotation Yrotation
                JOINT LeftArm
                {
                    OFFSET 10.880760 0.000000 0.000000
                    CHANNELS 3 Zrotation Xrotation Yrotation
                    JOINT LeftForeArm
                    {
                        OFFSET 27.185530 0.000000 0.000000
                        CHANNELS 3 Zrotation Xrotation Yrotation
                        JOINT LeftHand
                        {
                            OFFSET 27.825975 0.000000 0.000000
                            CHANNELS 3 Zrotation Xrotation Yrotation
                            End Site
                            {
                                OFFSET 13.236923 0.000000 0.000000
                            }
                        }
                    }
                }
            }
            JOINT RightShoulder
            {
                OFFSET -3.474926 18.396038 -0.314103
                CHANNELS 3 Zrotation Xrotation Yrotation
                JOINT RightArm
                {
                    OFFSET -10.880760 0.000000 0.000000
                    CHANNELS 3 Zrotation Xrotation Yrotation
                    JOINT RightForeArm
                    {
                        OFFSET -27.185530 0.000000 0.000000
                        CHANNELS 3 Zrotation Xrotation Yrotation
                        JOINT RightHand
                        {
                            OFFSET -27.825975 0.000000 0.000000
                            CHANNELS 3 Zrotation Xrotation Yrotation
                            End Site
                            {
                                OFFSET -13.236923 0.000000 0.000000
                            }
                        }
                    }
                }
            }
        }
    }
    JOINT LeftUpLeg
    {
        OFFSET 8.824615 0.000000 0.000000
        CHANNELS 3 Zrotation Xrotation Yrotation
        JOINT LeftLeg
        {
            OFFSET -0.000000 -35.111282 0.000000
            CHANNELS 3 Zrotation Xrotation Yrotation
            JOINT LeftFoot
            {
                OFFSET -0.000000 -42.324711 0.000000
                CHANNELS 3 Zrotation Xrotation Yrotation
                JOINT LeftToeBase
                {
                    OFFSET -0.000000 -5.735999 13.236923
                    CHANNELS 3 Zrotation Xrotation Yrotation
                    End Site
                    {
                        OFFSET -0.000000 0.000000 3.529846
                    }
                }
            }
        }
    }
    JOINT RightUpLeg
    {
        OFFSET -8.824615 0.000000 0.000000
        CHANNELS 3 Zrotation Xrotation Yrotation
        JOINT RightLeg
        {
            OFFSET -0.000000 -35.111282 0.000000
            CHANNELS 3 Zrotation Xrotation Yrotation
            JOINT RightFoot
            {
                OFFSET -0.000000 -42.324711 0.000000
                CHANNELS 3 Zrotation Xrotation Yrotation
                JOINT RightToeBase
                {
                    OFFSET -0.000000 -5.735999 13.236923
                    CHANNELS 3 Zrotation Xrotation Yrotation
                    End Site
                    {
                        OFFSET -0.000000 0.000000 3.529846
                    }
                }
            }
        }
    }
}
MOTION
Frames:    4
Frame Time:    0.008333
-5.801304    60.713577    126.026283    4.793616    -38.988583    -174.607315    -0.454985    4.733433    0.211366    2.625618    -0.794662    0.210768    0.978196    -1.175488    -0.089698    -0.561686    -41.926029    -0.528583    28.104446    -24.314846    -14.369519    -17.363821    -6.005738    -67.668869    23.206877    7.108598    -17.917969    50.064590    2.894226    -16.857525    -28.739389    -13.392756    13.018877    19.509239    -16.180483    57.924778    -30.167744    1.369329    28.947226    -42.776997    6.058931    8.368724    139.636108    -76.525528    128.411545    -11.842984    72.216507    19.413790    -10.220486    -8.359328    -19.903421    -0.172719    -5.941552    0.193625    -126.426552    -79.321243    -117.813217    0.580468    72.824585    11.581106    4.749006    -12.199034    -16.915396    -0.500279    -6.213399    0.545995    
-5.789120    60.977024    125.986946    4.838020    -38.915703    -174.538879    -0.412950    4.514694    0.184428    2.568157    -0.771021    0.185617    1.068269    -0.351881    -0.155265    -0.644500    -41.710407    -0.643496    27.984442    -24.232830    -14.439900    -17.300949    -5.818479    -67.990105    22.699043    6.977966    -17.487005    49.168636    2.726327    -16.913353    -28.583580    -13.278387    13.052481    19.192280    -15.903589    58.036568    -29.825201    1.520646    28.578251    -41.641758    6.131827    8.298512    138.654800    -76.873894    127.381699    -11.547797    71.751602    19.218374    -10.212658    -8.247188    -19.926233    -0.156683    -5.922908    0.175640    -124.455154    -79.609200    -115.828537    0.636298    72.311241    11.359560    4.816800    -12.078769    -16.870235    -0.498231    -6.209750    0.543757    
-5.777798    61.257820    125.943527    4.876227    -38.824097    -174.471329    -0.370231    4.288578    0.155827    2.506076    -0.745109    0.158277    1.168118    0.529707    -0.223573    -0.712185    -41.443264    -0.752352    27.845068    -24.135483    -14.520401    -17.239605    -5.621106    -68.332611    22.168507    6.842566    -17.041063    48.230907    2.560077    -16.966488    -28.408342    -13.151060    13.090395    18.865534    -15.607805    58.172489    -29.458214    1.659863    28.191656    -40.405941    6.196072    8.211640    137.499786    -77.250900    126.191322    -11.222449    71.259598    18.992504    -10.201779    -8.131078    -19.947393    -0.140966    -5.905354    0.158016    -122.166725    -79.905029    -113.516029    0.709626    71.766090    11.121387    4.880663    -11.951213    -16.830532    -0.498194    -6.203961    0.543712    
-5.767462    61.556973    125.895622    4.906272    -38.712032    -174.405746    -0.328247    4.055296    0.125261    2.438829    -0.715928    0.129472    1.277929    1.473270    -0.295327    -0.763871    -41.122517    -0.855273    27.686281    -24.022306    -14.610148    -17.179611    -5.411667    -68.699020    21.616274    6.700719    -16.579224    47.249203    2.394816    -17.016323    -28.212566    -13.010050    13.132081    18.529610    -15.292820    58.334297    -29.065104    1.784828    27.786215    -39.067089    6.249004    8.106584    136.133682    -77.656677    124.803719    -10.872270    70.737900    18.741003    -10.187796    -8.010778    -19.966597    -0.125762    -5.888457    0.140968    -119.509972    -80.203522    -110.823799    0.797782    71.187584    10.871310    4.939515    -11.815935    -16.798059    -0.499764    -6.196746    0.545419    
